<?xml version="1.0" encoding="UTF-8"?>
<svg width="64px" height="64px" viewBox="0 0 64 64" version="1.1" xmlns="http://www.w3.org/2000/svg" xmlns:xlink="http://www.w3.org/1999/xlink">
    <!-- Generator: Sketch 52.2 (67145) - http://www.bohemiancoding.com/sketch -->
    <title>Icon</title>
    <desc>Created with Sketch.</desc>
    <g id="Patterns" stroke="none" stroke-width="1" fill="none" fill-rule="evenodd">
        <g id="Badge-Class:-Optional-Details" transform="translate(-810.000000, -92.000000)" fill="#A09EAF" fill-rule="nonzero">
            <g id="Expiration" transform="translate(762.000000, 32.000000)">
                <g id="Cards-/-Square-/-Evidence_Default" transform="translate(0.000000, 28.000000)">
                    <g id="Icon" transform="translate(32.000000, 16.000000)">
                        <path d="M24.0000493,26.0002349 L24.0000493,18.0000206 C24.0000493,16.8944233 24.8944726,16 26.0003337,16 C27.1056673,16 28.0000905,16.8944233 28.0000905,18.0000206 L28.0000905,26.0002349 C28.0000905,27.1055685 27.1056673,27.9999918 26.0003337,27.9999918 C24.8944726,28.0001237 24.0000493,27.1055685 24.0000493,26.0002349 Z M58.0005316,28.0001237 C59.1056013,28.0001237 60.0005522,27.1057004 60.0005522,26.0003669 L60.0005522,18.0000206 C60.0005522,16.8944233 59.1056013,16 58.0005316,16 C56.8949342,16 55.9998515,16.8944233 55.9998515,18.0000206 L55.9998515,26.0002349 C55.9998515,27.1055685 56.8949342,28.0001237 58.0005316,28.0001237 Z M80.0000988,63.9997032 C80.0000988,72.836568 72.8362711,80.0002638 64.0000658,80.0002638 C55.16452,80.0002638 48.0001647,72.836568 48.0001647,63.9997032 C48.0001647,55.1641574 55.1643881,48.000066 64.0000658,48.000066 C72.8362711,48.000066 80.0000988,55.1640255 80.0000988,63.9997032 Z M76.0005852,63.9997032 C76.0005852,57.3833982 70.6176899,51.9998434 64.0001977,51.9998434 C57.3832331,51.9998434 52.0003378,57.3832662 52.0003378,63.9997032 C52.0003378,70.6173273 57.3832331,76.0000907 64.0001977,76.0000907 C70.6176899,76.0000907 76.0005852,70.6173273 76.0005852,63.9997032 Z M32.0002636,40.0001154 L24.0000493,40.0001154 L24.0000493,48.000066 L32.0002636,48.000066 L32.0002636,40.0001154 Z M24.0000493,60.0001896 L32.0002636,60.0001896 L32.0002636,51.9998434 L24.0000493,51.9998434 L24.0000493,60.0001896 Z M36.0000411,48.000066 L44.0003873,48.000066 L44.0003873,40.0001154 L36.0000411,40.0001154 L36.0000411,48.000066 Z M36.0000411,60.0001896 L44.0003873,60.0001896 L44.0003873,51.9998434 L36.0000411,51.9998434 L36.0000411,60.0001896 Z M20.0002719,63.6020206 L20.0002719,35.9999423 L64.0001977,35.9999423 L64.0001977,44.0001566 L68.0003708,44.0001566 L68.0003708,28.3987296 C68.0003708,25.9689743 66.0624758,23.9999505 63.6683338,23.9999505 L62.0001771,23.9999505 L62.0001771,26.0003669 C62.0001771,28.2032518 60.2068459,30.0002762 58.0006635,30.0002762 C55.7938215,30.0002762 54.0006222,28.2032518 54.0006222,26.0003669 L54.0006222,23.9999505 L29.9999792,23.9999505 L29.9999792,26.0003669 C29.9999792,28.2032518 28.2070438,30.0002762 26.0004656,30.0002762 C23.7933598,30.0002762 22.0002925,28.2032518 22.0002925,26.0003669 L22.0002925,23.9999505 L20.3341143,23.9999505 C17.9398404,23.9999505 16.0000988,25.9689743 16.0000988,28.3987296 L16.0000988,63.6021525 C16.0000988,66.0238618 17.9398404,68.0005358 20.3341143,68.0005358 L44.0003873,68.0005358 L44.0003873,63.9998351 L20.3341143,63.9998351 C20.1528818,63.9997032 20.0002719,63.8125352 20.0002719,63.6020206 Z M55.9998515,48.000066 L55.9998515,40.0001154 L48.0002966,40.0001154 L48.0002966,48.000066 L55.9998515,48.000066 Z M70.0002595,63.9997032 L64.0000658,63.9997032 L64.0000658,57.9995095 C64.0000658,56.8945716 63.1056425,56.0001484 62.0000452,56.0001484 C60.8944478,56.0001484 60.0005522,56.8945716 60.0005522,57.9995095 L60.0005522,66.0003833 C60.0005522,67.1054531 60.8944478,68.0004039 62.0000452,68.0004039 L70.0002595,68.0004039 C71.1058569,68.0004039 72.0002801,67.1054531 72.0002801,66.0003833 C72.0002801,64.894786 71.1058569,63.9997032 70.0002595,63.9997032 Z" id="Shape"></path>
                    </g>
                </g>
            </g>
        </g>
    </g>
</svg>